<svg width="750" height="423" viewBox="0 0 750 423" fill="none" xmlns="http://www.w3.org/2000/svg">
<g clip-path="url(#clip0_2_4)">
<path d="M689.076 257.59C693.772 250.478 695.096 248.634 697.264 245.473C698.588 243.498 703.524 235.859 704.367 234.805C704.488 234.674 705.33 233.62 705.812 233.62C706.414 233.62 707.979 235.859 708.581 236.913L718.695 251.795C718.815 252.059 727.363 265.097 727.363 267.6C727.363 269.707 725.437 270.234 724.353 270.497C720.741 271.287 720.26 271.419 720.26 272.604C720.26 273.79 720.982 274.053 721.705 274.053C722.668 274.053 723.992 273.921 724.955 273.79C728.808 273.263 732.781 273.131 735.43 273.131C736.995 273.131 739.042 273.131 741.691 273.526C742.654 273.526 747.229 274.185 748.193 274.185C748.915 274.185 749.999 274.053 749.999 272.868C749.999 271.946 748.433 271.551 747.591 271.287C741.932 269.839 739.042 267.731 728.327 250.61L715.203 229.801C712.554 225.586 712.193 225.059 712.193 224.269C712.193 223.479 714.36 220.45 715.083 219.396L731.337 197.007C737.236 189.368 739.283 187.524 744.099 186.47C746.025 186.075 746.989 185.812 746.989 184.495C746.989 183.704 746.387 183.309 745.664 183.309C745.062 183.309 743.015 183.441 740.969 183.573C738.922 183.836 736.875 183.968 736.032 183.968C732.661 183.968 729.771 183.704 726.521 183.178C724.474 182.783 723.992 182.783 723.511 182.783C721.945 182.783 721.464 183.704 721.464 184.363C721.464 185.285 722.909 185.68 724.594 186.075C726.521 186.47 729.651 187.26 729.651 190.026C729.651 191.343 729.169 192.397 727.002 195.689L715.083 213.865C713.277 216.762 710.508 220.318 709.906 220.318C709.424 220.318 707.377 217.684 706.173 215.84L694.374 197.007C692.086 193.055 691.244 191.343 691.244 189.499C691.244 187.656 692.327 186.997 693.29 186.602C695.819 185.548 696.421 185.153 696.421 184.231C696.421 183.573 695.698 182.914 695.337 182.914C694.976 182.914 691.725 183.441 691.244 183.573C688.956 183.836 687.872 183.836 686.307 183.836C683.779 183.836 671.739 182.519 668.97 182.519C668.247 182.519 666.562 182.783 666.562 184.1C666.562 184.89 667.164 185.285 669.572 185.812C676.314 187.392 678.361 190.421 680.528 193.451C684.501 199.114 690.762 208.728 695.819 216.367C701.598 225.191 703.524 228.089 703.524 229.01C703.524 229.669 703.163 230.591 702.681 231.118L683.779 258.775C683.418 259.302 677.157 268.258 672.1 270.102C668.006 271.551 667.525 271.682 667.525 272.868C667.525 273.526 668.127 274.185 669.572 274.185C670.053 274.185 679.204 273.131 681.13 273.131C681.852 273.131 683.779 273.263 685.826 273.526C687.872 273.658 690.04 273.921 690.762 273.921C691.003 273.921 693.411 273.921 693.411 272.736C693.411 271.682 692.568 271.419 690.762 271.287C688.233 271.156 685.224 270.365 685.224 266.414C685.224 264.834 685.826 263.253 686.668 261.936L689.076 257.59ZM638.447 252.849C638.447 265.887 635.962 269.048 632.057 269.97C628.625 270.76 628.152 270.892 628.152 272.209C628.152 273.526 629.335 273.658 630.4 273.658C630.755 273.658 633.95 273.526 637.264 273.395C640.695 273.263 644.364 273.131 645.547 273.131C646.375 273.131 648.742 273.263 651.109 273.395C653.475 273.526 655.96 273.658 656.789 273.658C658.209 273.658 659.155 272.999 659.155 272.209C659.155 271.682 658.8 271.419 658.682 271.156C657.854 270.629 653.238 269.839 652.292 269.443C648.86 267.863 647.204 261.673 647.204 257.59V195.426C647.204 192.792 648.387 187.392 654.895 186.47C656.315 186.339 657.735 186.075 657.735 184.626C657.735 184.1 657.499 182.783 656.67 182.783C656.315 182.783 654.658 183.046 654.303 183.178C651.818 183.309 647.677 183.441 644.6 183.441C643.417 183.441 638.684 183.441 633.95 183.046C633.359 183.046 630.4 182.651 629.809 182.651C628.862 182.651 628.27 183.046 628.27 184.1C628.27 185.285 628.625 185.417 632.53 186.47C635.725 187.392 638.447 189.104 638.447 195.953V252.849ZM577.622 229.669C577.622 193.187 578.806 191.212 580.817 188.182C582.237 186.602 582.474 186.602 585.551 185.943C586.852 185.68 587.562 185.417 587.562 183.968C587.562 183.178 587.208 182.783 586.261 182.783C584.604 182.783 576.794 183.573 575.019 183.573C573.008 183.573 563.068 182.914 562.121 182.914C561.529 182.914 558.334 182.914 558.334 184.495C558.334 185.417 559.044 185.812 560.819 185.943C567.683 186.602 568.984 190.421 568.984 203.46V259.697C568.984 263.78 567.683 269.048 562.239 270.629C560.346 271.156 560.109 271.814 560.109 272.736C560.109 273.395 560.346 273.921 562.713 273.921C563.778 273.921 566.736 273.658 569.694 273.526C572.652 273.263 575.611 273.131 576.676 273.131C578.687 273.131 584.604 273.395 590.639 273.658C596.556 274.053 602.591 274.316 604.839 274.316C610.874 274.316 614.897 273.131 618.092 269.575C620.814 266.678 624.127 259.961 624.127 256.8C624.127 256.273 623.891 255.615 623.181 255.615C622.471 255.615 622.352 255.878 620.932 257.854C619.157 260.619 616.199 263.122 612.886 264.57C604.839 268.126 591.349 268.258 587.799 268.258C581.882 268.258 577.622 268.126 577.622 259.697V229.669ZM491.943 212.809C491.943 223.847 491.943 254.622 490.87 262.985C490.104 268.838 486.119 270.678 481.981 271.515C479.375 271.849 478.762 272.518 478.762 273.689C478.762 275.194 479.988 275.361 480.908 275.361C482.134 275.361 485.812 275.194 489.491 275.027C493.323 274.86 497.001 274.692 498.381 274.692C499.914 274.692 504.052 275.027 507.884 275.361C511.869 275.696 515.548 276.03 516.161 276.03C518.307 276.03 518.613 273.856 518.613 273.522C518.613 273.02 518.307 272.685 518 272.351C517.08 271.849 512.022 271.013 510.949 270.511C507.271 269.173 502.519 265.995 502.826 251.611L503.286 229.199C503.439 223.011 503.439 222.342 503.745 221.339C504.512 219.331 507.118 218.83 517.54 218.83C532.255 218.83 538.845 220.669 540.378 226.691C542.371 234.384 542.677 235.221 544.057 235.221C545.283 235.221 545.436 233.548 545.436 232.377C545.436 230.203 544.823 220.168 544.823 217.826C544.823 215.485 545.896 203.944 545.896 201.268C545.896 200.432 545.59 199.428 544.21 199.428C543.137 199.428 542.524 200.097 542.064 202.773C540.531 211.805 537.466 212.14 520.146 212.14C517.847 212.14 504.512 212.14 503.592 210.133C503.286 209.631 503.286 203.61 503.286 201.101V183.539C503.286 177.518 503.286 169.992 505.125 168.152C506.811 166.479 518 166.479 521.372 166.479C527.043 166.479 542.064 166.814 546.049 170.661C547.429 172.501 548.502 174.675 548.502 180.361C548.502 183.038 548.962 184.041 550.341 184.041C550.954 184.041 551.721 183.707 552.027 183.372C552.794 181.867 553.866 163.971 554.173 159.957C531.642 160.458 523.058 160.626 517.387 160.626C508.957 160.626 502.366 160.291 497.461 160.124C493.936 159.789 482.44 159.12 481.827 159.12C481.061 159.12 476.769 159.12 476.769 161.629C476.769 163.636 478.302 163.636 479.375 163.636C491.943 163.636 491.943 173.839 491.943 184.376L491.943 212.809ZM388.047 208.355C388.047 204.969 387.926 190.34 389.736 188.308C390.34 187.631 399.028 187.631 400.597 187.631C403.976 187.631 413.389 187.766 415.923 189.798C417.854 191.288 418.94 194.132 419.302 196.706C419.543 198.467 420.026 199.144 420.871 199.144C421.836 199.144 421.957 198.06 421.957 196.977C421.957 195.622 421.233 188.443 421.112 186.818C420.87 182.077 420.388 182.077 418.698 182.077C416.044 182.077 389.253 182.348 384.547 182.348C378.996 182.348 356.55 182.213 349.913 182.077C348.706 182.077 347.379 182.077 346.896 182.754C346.293 183.973 345.569 194.674 345.569 197.383C345.569 198.196 345.569 201.311 346.413 201.311C347.379 201.311 348.224 198.331 348.465 197.112C350.275 188.85 351.844 187.766 369.704 187.766C371.393 187.766 377.186 187.902 377.91 188.714C378.634 189.527 379.117 198.738 379.117 206.052V253.189C379.117 268.089 378.513 271.069 371.393 272.288C369.825 272.559 368.98 272.694 368.98 273.913C368.98 274.997 369.704 275.268 370.669 275.268C371.755 275.268 374.772 274.862 377.789 274.726C380.806 274.591 383.944 274.32 385.03 274.32C387.443 274.32 389.495 274.455 391.184 274.726C391.667 274.726 397.097 275.403 397.218 275.403C398.183 275.403 398.787 274.997 398.787 274.049C398.787 272.965 398.425 272.288 395.891 272.017C390.219 271.34 388.047 268.902 388.047 259.149V208.355ZM311.872 182.077H302.821C291.719 182.077 282.065 181.942 278.565 181.806C277.841 181.671 277.72 181.671 277.358 181.671C273.859 181.671 272.531 181.806 272.049 182.077C271.687 182.213 271.566 182.754 271.566 183.296C271.566 185.057 273.135 185.328 274.704 185.599C280.979 186.412 282.91 190.069 282.91 200.905V224.338C282.91 228.673 282.668 248.042 282.668 251.97C282.668 264.838 282.548 270.121 275.186 271.746C273.376 272.152 272.893 272.559 272.893 273.642C272.893 274.726 273.618 274.997 276.996 274.997C278.445 274.997 282.186 274.726 285.926 274.591C289.667 274.455 293.408 274.32 294.615 274.32C296.667 274.32 302.58 274.591 308.252 274.997C313.923 275.403 319.474 275.81 320.681 275.81C326.715 275.81 329.37 274.455 333.473 268.224C336.128 264.161 338.662 259.014 338.662 257.524C338.662 256.711 338.3 256.169 337.697 256.169C337.093 256.169 336.61 256.711 335.404 258.472C329.249 267.412 313.803 269.173 302.7 269.173C292.805 269.173 291.598 267.683 291.598 255.357V237.612C291.598 232.736 291.719 231.517 292.443 230.84C293.167 230.163 299.08 229.756 307.89 229.756C319.836 229.756 321.043 231.382 322.25 240.321C322.491 242.082 322.853 242.489 324.543 242.489C325.267 242.489 325.388 242.353 325.388 240.999C325.388 239.509 324.905 232.736 324.905 231.382C324.905 227.047 325.146 224.88 325.508 217.972L325.629 215.669C325.629 214.45 325.146 213.637 324.543 213.637C323.336 213.637 322.974 214.179 322.612 216.482C322.009 220.681 320.319 222.848 317.061 223.525L301.252 224.338C298.597 224.474 293.288 224.474 292.322 223.254C291.84 222.713 291.478 219.462 291.478 215.398V200.905C291.478 193.32 292.081 189.662 293.167 188.308C294.253 187.089 295.822 186.953 303.666 186.953C318.026 186.953 323.457 187.766 326.232 190.475C327.68 192.778 328.042 194.268 328.042 198.196C328.042 200.363 328.284 200.905 329.611 200.905C330.094 200.905 330.215 200.77 330.697 200.499C331.059 199.686 331.301 195.893 331.783 188.037L332.145 182.484L311.872 182.077ZM259.411 239.294C259.253 241.625 259.094 252.614 258.936 255.111C258.936 255.278 258.777 256.277 258.461 256.277C258.302 256.277 256.244 253.946 251.968 249.117C232.331 226.64 222.829 215.818 190.364 176.858C187.197 173.029 179.121 163.372 176.587 161.707C174.845 160.708 174.37 160.708 170.094 160.875L159.959 160.708C158.217 160.708 157.9 162.207 157.9 163.039C157.9 164.205 158.692 164.704 159.484 164.871C162.809 165.37 164.71 165.703 167.877 168.2C178.487 176.026 178.487 185.682 178.17 211.323L177.695 230.803C177.379 239.794 176.904 255.777 173.736 263.769C172.469 267.099 169.936 269.596 166.293 270.595C161.701 271.761 161.226 271.761 161.226 273.426C161.226 275.257 162.809 275.257 163.284 275.257C165.501 275.257 175.953 274.425 178.17 274.425C180.863 274.425 193.69 275.091 196.699 275.091C197.016 275.091 199.549 275.091 199.549 273.592C199.549 272.76 198.758 271.594 197.966 271.428C184.663 269.097 181.496 268.431 181.971 249.117L182.605 215.985C182.763 213.82 183.396 192.176 183.555 191.343C183.713 190.844 183.713 190.011 184.347 190.011C185.93 190.011 190.681 196.005 192.265 197.837C193.69 199.835 246.9 260.939 257.035 272.926C260.361 276.756 260.678 277.255 261.945 277.255C262.42 277.255 262.895 276.922 262.895 276.589C263.053 276.09 263.37 263.935 263.37 263.269L264.637 194.174C264.954 171.53 266.379 167.368 272.238 165.703C277.306 164.205 277.623 164.205 277.623 162.706C277.623 161.041 275.089 161.041 274.614 161.041L260.519 161.208C257.986 161.208 245.633 160.708 242.783 160.708C242.149 160.708 240.249 160.708 240.249 162.207C240.249 163.705 242.624 164.371 243.733 164.538C256.402 167.701 259.411 168.367 259.411 191.51V239.294Z" fill="black"/>
<path d="M451.417 271.999C451.171 271.999 444.207 277.133 444.207 277.312C444.207 277.377 444.498 277.739 444.855 278.115C445.907 279.228 446.919 281.219 448.716 283.754C491.741 396.04 256.221 423.236 185.612 417.302C185.612 417.302 186.724 417.497 188.049 417.703C266.706 427.633 358.324 427.323 431.167 380.013C431.224 379.977 431.282 379.946 431.338 379.91C431.321 379.916 431.303 379.922 431.287 379.927C470.367 354.527 505.354 311.654 451.417 271.999Z" fill="url(#paint0_linear_2_4)"/>
<path d="M396.368 156.453C396.059 156.514 475.086 181.372 459.996 230.014C444.66 279.452 362.456 323.484 231.021 321.608C18.4139 319.618 -33.0826 165.743 147.294 78.4374C226.283 44.1788 276.364 21.7025 386.494 13.3282C496.624 4.95384 595.361 27.7929 595.361 27.7929C595.361 27.7929 574.475 0.766681 404.343 0.0053793C234.211 -0.755923 -14.0444 79.3417 0.62113 207.33C13.6291 320.852 220.281 348.739 340.164 321.275C444.122 297.459 471.736 257.572 477.053 233.971C482.37 210.371 468.522 194.518 457.129 183.86C445.736 173.202 396.368 156.453 396.368 156.453Z" fill="url(#paint1_radial_2_4)"/>
<path d="M127.656 322.013C127.64 321.999 189.873 338.632 209.723 338.659V405.374C209.723 405.374 125.921 400.865 126.211 387.693L127.656 322.013Z" fill="url(#paint2_linear_2_4)"/>
<path d="M288.396 338.414L287.879 401.958C287.879 401.958 217.84 408.803 217.875 405.154L218.513 338.828C218.513 338.828 256.459 340.785 288.396 338.414Z" fill="url(#paint3_linear_2_4)"/>
<path d="M355.358 328.522C355.358 328.522 346.559 332.031 293.766 338.023L293.963 400.261C293.963 400.261 355.656 389.927 355.637 385.991L355.358 328.522Z" fill="url(#paint4_linear_2_4)"/>
<path d="M443.966 289.823C443.966 289.823 436.751 296.856 415.047 308.74L415.264 360.156C444.491 335.768 443.762 327.72 443.762 327.72L443.966 289.823Z" fill="url(#paint5_linear_2_4)"/>
<path d="M407.444 363.318C407.444 363.318 362.025 385.621 361.988 383.048C361.933 379.308 361.988 327.002 361.988 327.002C359.135 328.201 388.607 319.923 407.115 311.46L407.444 363.318Z" fill="url(#paint6_linear_2_4)"/>
</g>
<defs>
<linearGradient id="paint0_linear_2_4" x1="188.049" y1="417.703" x2="448.97" y2="284.251" gradientUnits="userSpaceOnUse">
<stop stop-color="#FBF8FE"/>
<stop offset="0.648868" stop-color="#611A9D"/>
<stop offset="1"/>
</linearGradient>
<radialGradient id="paint1_radial_2_4" cx="0" cy="0" r="1" gradientUnits="userSpaceOnUse" gradientTransform="translate(-1.10738e-05 203.834) rotate(10.7612) scale(349.673 1300.1)">
<stop stop-color="#E5D4F9"/>
<stop offset="0.648868" stop-color="#611A9D"/>
<stop offset="1"/>
</radialGradient>
<linearGradient id="paint2_linear_2_4" x1="126.566" y1="371.563" x2="442.37" y2="307.618" gradientUnits="userSpaceOnUse">
<stop stop-color="#FBF8FE"/>
<stop offset="0.526819" stop-color="#611A9D"/>
<stop offset="1"/>
</linearGradient>
<linearGradient id="paint3_linear_2_4" x1="126.566" y1="371.564" x2="442.37" y2="307.618" gradientUnits="userSpaceOnUse">
<stop stop-color="#FBF8FE"/>
<stop offset="0.526819" stop-color="#611A9D"/>
<stop offset="1"/>
</linearGradient>
<linearGradient id="paint4_linear_2_4" x1="126.566" y1="371.564" x2="442.37" y2="307.618" gradientUnits="userSpaceOnUse">
<stop stop-color="#FBF8FE"/>
<stop offset="0.526819" stop-color="#611A9D"/>
<stop offset="1"/>
</linearGradient>
<linearGradient id="paint5_linear_2_4" x1="126.566" y1="371.564" x2="442.37" y2="307.618" gradientUnits="userSpaceOnUse">
<stop stop-color="#FBF8FE"/>
<stop offset="0.526819" stop-color="#611A9D"/>
<stop offset="1"/>
</linearGradient>
<linearGradient id="paint6_linear_2_4" x1="126.566" y1="371.563" x2="442.37" y2="307.619" gradientUnits="userSpaceOnUse">
<stop stop-color="#FBF8FE"/>
<stop offset="0.526819" stop-color="#611A9D"/>
<stop offset="1"/>
</linearGradient>
<clipPath id="clip0_2_4">
<rect width="750" height="422.892" fill="white"/>
</clipPath>
</defs>
</svg>
